<?xml version="1.0" standalone="no"?>
<svg id="SvgjsSvg1001" width="600" height="600" xmlns="http://www.w3.org/2000/svg" version="1.1" xmlns:xlink="http://www.w3.org/1999/xlink" xmlns:svgjs="http://svgjs.com/svgjs" class="svg-paper" viewBox="0 0 600 600"><title id="SvgjsTitle4525">x=sin((cos(x/min(x,sqrt(x*x + y*y)))/cos(x)+y))|y=x*y|dTest=0.0|sd=0.2|sm=0.2|ts=0.05 | generated with FlowLines</title><g id="SvgjsG4526"><polyline id="SvgjsPolyline4527" points="23.24,2.18 22.04,32.15 21.74,47.15 22.58,134.14 23.58,191.13 24.81,239.12 26.18,275.09 27.67,299.02" fill="none" stroke="#000000" stroke-width="1"/><polyline id="SvgjsPolyline4528" points="35.24,2.41 35.75,38.41 37.36,77.37 40.59,125.26 47.04,202.99 48.14,223.96 48.28,238.96 47.92,247.95 47.05,256.91 45.44,265.76 43.76,271.52 41.42,277.04 39.95,279.65 36.4,284.48 30,290.8 28.19,293.18 27.64,295.95" fill="none" stroke="#000000" stroke-width="1"/><polyline id="SvgjsPolyline4529" points="11.24,1.94 10.79,22.94 10.8,46.94 12.64,163.92 13.63,280.91 15.23,286.24 14.88,289.06" fill="none" stroke="#000000" stroke-width="1"/><polyline id="SvgjsPolyline4530" points="88.7,597.06 90.1,570.1 95.12,495.26 95.9,477.28 96.22,459.28 95.94,441.29 94.67,420.33 92.67,402.44 89.73,384.69 84.99,364.23 79.62,347.06 76.34,338.68 72.54,330.52 69.61,325.29 66.27,320.31 60.25,313.63 55.49,309.99 52.9,308.48 50.21,307.16 44.58,305.08 29.98,301.66" fill="none" stroke="#000000" stroke-width="1"/><polyline id="SvgjsPolyline4531" points="47.24,2.4 46.69,26.4 46.61,50.4 46.98,71.39 47.94,95.37 49.23,116.33 51.44,143.24 59.9,226.81 60.92,244.78 60.82,259.78 59.97,268.73 58.06,277.52 55.85,283.09 52.55,288.09 50.46,290.23 48.09,292.07 42.77,294.82 37.04,296.6 28.31,298.71" fill="none" stroke="#000000" stroke-width="1"/><polyline id="SvgjsPolyline4532" points="1.67,2.19 2.37,35.18 2.39,68.18 1.6,95.17 0.04,122.13" fill="none" stroke="#000000" stroke-width="1"/><polyline id="SvgjsPolyline4533" points="2.29,2.2 3.26,44.19 3.26,77.19 2.24,107.17 0.05,140.09" fill="none" stroke="#000000" stroke-width="1"/><polyline id="SvgjsPolyline4534" points="2.85,2.21 4.08,50.2 4.13,86.2 3.05,116.17 0.02,158.06" fill="none" stroke="#000000" stroke-width="1"/><polyline id="SvgjsPolyline4535" points="3.4,2.24 4.97,56.22 5.14,98.21 3.95,128.19 0.04,179.04" fill="none" stroke="#000000" stroke-width="1"/><polyline id="SvgjsPolyline4536" points="3.87,2.28 5.94,68.24 6.31,92.24 6.2,113.24 5.06,140.21 1.36,185.06 0.09,206.02" fill="none" stroke="#000000" stroke-width="1"/><polyline id="SvgjsPolyline4537" points="4.19,2.31 6.81,80.27 7.33,107.26 7.32,128.26 6.87,143.25 6.14,155.23 1.75,206.04 1.01,224.02 0.94,236.02 1.31,248.02 2.15,259.99 5.89,289.75 6.7,298.7" fill="none" stroke="#000000" stroke-width="1"/><polyline id="SvgjsPolyline4538" points="76.6,599.59 78.27,563.63 83.07,488.78 84.05,458.8 83.88,437.8 82.99,419.82 81.3,401.91 79.21,387.05 75.8,369.38 71.24,351.97 66.33,337.81 62.69,329.58 59.86,324.28 54.79,316.86 50.7,312.48 48.4,310.55 45.95,308.82 40.66,306.01 29.31,302.15" fill="none" stroke="#000000" stroke-width="1"/><polyline id="SvgjsPolyline4539" points="100.69,597.53 102.33,567.57 107.62,492.76 108.52,471.78 108.75,453.78 108.16,432.79 106.45,411.87 103.46,391.08 99.8,373.46 97.56,364.74 94.12,353.25 91.16,344.75 87.8,336.4 83.96,328.27 81.04,323.02 77.74,318.02 73.95,313.37 69.56,309.29 67.12,307.55 64.52,306.04 58.98,303.76 53.17,302.31 47.23,301.44 29.27,300.32" fill="none" stroke="#000000" stroke-width="1"/><polyline id="SvgjsPolyline4540" points="59.23,2.77 58.21,32.75 57.86,59.75 58.1,80.75 58.99,104.73 60.54,128.68 62.71,152.58 70.9,221.09 72.75,238.99 73.78,256.96 73.67,265.96 73.2,271.94 71.49,280.77 69.28,286.33 67.71,288.88 65.78,291.18 63.51,293.14 60.97,294.73 55.39,296.89 49.52,298.12 40.57,299.05 28.59,299.7" fill="none" stroke="#000000" stroke-width="1"/><polyline id="SvgjsPolyline4541" points="64.61,599.2 66.06,563.23 70.57,491.37 71.8,461.4 71.94,443.4 71.49,425.41 70.55,410.44 69.05,395.51 66.4,377.71 62.7,360.1 58.61,345.67 55.57,337.2 53.22,331.68 49.05,323.71 43.83,316.39 41.8,314.18 37.31,310.21 29.94,305.05 28.23,302.75" fill="none" stroke="#000000" stroke-width="1"/><polyline id="SvgjsPolyline4542" points="112.68,598.04 114.84,562.1 120.07,493.3 121.06,472.33 121.34,454.33 120.58,430.35 118.61,409.44 115.83,391.66 111.22,371.18 107.89,359.65 105.03,351.11 100.69,339.93 96.95,331.74 92.66,323.83 89.4,318.8 85.69,314.09 81.44,309.87 76.55,306.4 73.89,305.02 71.11,303.88 65.34,302.27 59.41,301.33 53.44,300.8 32.45,300.16" fill="none" stroke="#000000" stroke-width="1"/><polyline id="SvgjsPolyline4543" points="71.36,0.27 69.88,36.24 69.38,60.23 69.53,87.23 70.59,114.21 72.33,138.15 74.77,162.02 83.55,227.43 85.62,245.31 86.68,263.28 86.12,275.25 85.06,281.16 83.09,286.81 81.62,289.43 79.76,291.78 77.54,293.78 75,295.38 69.39,297.48 60.52,298.94 48.54,299.62 30.55,299.91" fill="none" stroke="#000000" stroke-width="1"/><polyline id="SvgjsPolyline4544" points="52.62,598.89 53.13,577.89 54.16,553.92 58.29,488.05 59.69,458.08 59.88,428.08 59.33,413.09 58.51,401.12 56.95,386.21 54.72,371.37 51.69,356.68 48.56,345.1 45.67,336.58 42.15,328.3 37.83,320.41 29.37,308.03 28.33,305.24 28.07,302.42" fill="none" stroke="#000000" stroke-width="1"/><polyline id="SvgjsPolyline4545" points="124.67,598.58 126.94,562.65 133.01,487.9 133.98,466.92 134.15,448.92 133.82,436.93 133.08,424.95 130.68,404.09 126.75,383.47 123.78,371.85 121.2,363.22 118.32,354.7 113.95,343.52 110.23,335.33 106.05,327.36 101.25,319.75 97.58,315.01 93.42,310.69 88.67,307.04 86.07,305.53 80.53,303.25 71.74,301.37 56.78,300.34 29.79,300.04" fill="none" stroke="#000000" stroke-width="1"/><polyline id="SvgjsPolyline4546" points="83.35,0.85 81.79,33.81 80.99,63.8 81.1,90.8 82.01,114.78 83.75,138.72 86.28,162.58 89.48,186.37 96.23,230.86 98.49,248.71 99.25,257.68 99.58,266.67 99.41,272.67 98.76,278.63 97.36,284.46 94.79,289.86 92.93,292.21 90.68,294.19 88.13,295.76 85.37,296.93 79.56,298.39 70.61,299.37 55.62,299.85 31.62,299.98" fill="none" stroke="#000000" stroke-width="1"/><polyline id="SvgjsPolyline4547" points="40.62,598.7 40.76,571.7 41.69,541.71 42.81,520.74 46.61,463.87 47.61,442.9 47.98,424.9 47.63,403.91 45.93,379.97 44.45,368.06 42.47,356.23 40.6,347.42 37.5,335.83 29.66,313.16 28.37,307.3 27.98,301.42" fill="none" stroke="#000000" stroke-width="1"/><polyline id="SvgjsPolyline4548" points="136.66,599.14 139.02,563.22 145.95,485.53 146.98,467.56 147.38,449.57 146.76,428.58 145.76,416.62 144.66,407.69 143.25,398.8 140.86,387.04 136.18,369.67 133.35,361.12 129.05,349.92 125.42,341.69 121.38,333.64 116.88,325.86 111.74,318.47 107.85,313.9 103.49,309.79 98.57,306.36 95.92,304.97 90.3,302.88 84.44,301.59 78.49,300.87 69.5,300.35 45.51,300.04" fill="none" stroke="#000000" stroke-width="1"/><polyline id="SvgjsPolyline4549" points="95.33,1.48 93.64,34.44 92.72,64.42 92.75,91.42 93.64,115.4 95.71,142.32 98.48,166.16 101.49,186.94 109.22,234.31 111.55,252.16 112.26,261.13 112.4,270.13 112,276.11 110.96,282.02 108.92,287.65 107.38,290.22 105.45,292.51 103.15,294.43 100.56,295.94 94.9,297.9 88.99,298.91 77.02,299.7 29.03,300" fill="none" stroke="#000000" stroke-width="1"/><polyline id="SvgjsPolyline4550" points="28.62,598.76 23.34,496.9 22.56,475.92 21.64,415.92 20.88,319.93 20.47,317.02" fill="none" stroke="#000000" stroke-width="1"/><polyline id="SvgjsPolyline4551" points="32.37,598.03 31.28,553.04 31.46,517.04 33.06,484.08 37.66,424.26 38.42,406.28 38.5,388.28 37.74,370.3 36.01,352.39 33.73,337.56 29.18,314 27.83,302.08" fill="none" stroke="#000000" stroke-width="1"/><polyline id="SvgjsPolyline4552" points="148.64,599.71 149.67,581.74 151.57,557.82 159.4,480.22 160.67,462.26 161.25,447.27 161.11,429.28 159.79,411.33 157.61,396.49 155.77,387.68 153.54,378.96 149.96,367.51 145.7,356.3 142.07,348.06 136.63,337.37 132.05,329.62 126.95,322.21 121.18,315.31 116.84,311.17 112.03,307.59 106.75,304.75 103.96,303.66 98.18,302.07 92.25,301.13 86.28,300.6 65.29,300.07" fill="none" stroke="#000000" stroke-width="1"/><polyline id="SvgjsPolyline4553" points="107.32,2.15 105.5,35.1 104.5,65.09 104.5,92.08 105.42,116.07 107.31,139.99 110.14,163.82 113.78,187.54 121.53,231.87 124.08,249.69 125.18,264.64 125.12,270.64 124.57,276.61 123.32,282.47 121.02,288 119.34,290.49 117.3,292.68 114.93,294.51 112.3,295.95 106.62,297.86 97.73,299.19 88.75,299.7 70.75,299.95" fill="none" stroke="#000000" stroke-width="1"/><polyline id="SvgjsPolyline4554" points="16.63,599.3 16.17,530.34 16.79,494.37 16.43,476.39 16.92,446.43 16.24,422.49 16.69,389.59 16.44,383.61 17.05,377.65 16.56,371.69 16.62,359.81 16.13,353.91 16.6,345.01 15.37,333.23 15.8,330.33 16,324.53 16.72,321.67 14.95,316.07" fill="none" stroke="#000000" stroke-width="1"/><polyline id="SvgjsPolyline4555" points="160.77,597.32 162,576.35 164.05,552.44 167.01,525.61 174.69,463.08 176.43,445.16 177.57,427.2 177.68,409.2 176.54,394.25 175.13,385.37 173.84,379.5 170.42,368.01 165.93,356.89 161.93,348.82 155.88,338.46 150.83,331.02 145.3,323.92 139.23,317.28 132.47,311.35 127.51,307.97 122.18,305.23 116.54,303.2 110.69,301.85 104.75,301.02 89.78,300.21 56.78,300.01" fill="none" stroke="#000000" stroke-width="1"/><polyline id="SvgjsPolyline4556" points="119.29,2.87 117.23,38.81 116.33,65.8 116.35,92.8 117.36,116.77 119.4,140.68 122.02,161.52 125.83,185.21 133.99,229.47 136.65,247.27 137.5,256.23 137.79,265.22 137.5,271.21 136.66,277.15 135.04,282.92 133.83,285.66 132.32,288.25 130.47,290.61 128.3,292.68 125.85,294.41 120.39,296.87 111.61,298.76 102.64,299.52 66.65,299.99" fill="none" stroke="#000000" stroke-width="1"/><polyline id="SvgjsPolyline4557" points="4.63,599.06 3,554.09 0.16,500.16" fill="none" stroke="#000000" stroke-width="1"/><polyline id="SvgjsPolyline4558" points="9.02,599.77 4.95,494.85 3.93,449.86 4.11,431.86 4.77,416.88 6.1,401.94 8.66,381.09 9.41,369.12 9.45,357.12 9.05,342.13 7.11,303.18" fill="none" stroke="#000000" stroke-width="1"/><polyline id="SvgjsPolyline4559" points="172.76,597.85 173.49,579.86 174.95,558.92 177.02,538.02 179.6,517.18 182.63,496.4 186.62,472.73 190.71,452.14 195.95,428.72 197.67,416.85 198.27,407.87 198.87,389.88 200.06,323.95" fill="none" stroke="#000000" stroke-width="1"/><polyline id="SvgjsPolyline4560" points="164.39,597.77 166.33,567.84 169.01,540.97 172.33,514.18 182.03,442.83 185.92,407.04 186.84,392.08 186.87,380.08 186.27,371.1 184.67,362.25 182.88,356.52 180.52,351.01 177.67,345.74 172.68,338.25 167.07,331.21 160.98,324.59 154.44,318.41 147.39,312.82 142.37,309.54 137.07,306.72 131.52,304.46 125.76,302.79 119.87,301.65 113.91,300.94 95.94,300.15" fill="none" stroke="#000000" stroke-width="1"/><polyline id="SvgjsPolyline4561" points="131.47,0.65 129.26,36.58 128.27,63.56 128.19,87.56 129.09,111.54 130.77,132.47 133.72,156.29 137.64,179.96 146.12,224.16 148.87,241.94 149.75,250.9 150.07,259.89 149.57,268.87 148.57,274.79 146.85,280.53 145.65,283.27 142.44,288.33 140.41,290.54 135.61,294.11 132.93,295.46 127.25,297.38 118.39,298.91 106.42,299.68 61.42,300" fill="none" stroke="#000000" stroke-width="1"/><polyline id="SvgjsPolyline4562" points="184.76,598.17 184.76,568.17 186.34,538.22 188.89,511.34 195.44,457.74 197.13,436.81 198.08,415.83 199.05,382.85 200.14,328.86 200,323.06" fill="none" stroke="#000000" stroke-width="1"/><polyline id="SvgjsPolyline4563" points="209.77,600 210.96,489.01 212.18,417.02 212.44,414.03 210.81,408.27 209.96,402.42 210.55,340.3 210.09,337.51" fill="none" stroke="#000000" stroke-width="1"/><polyline id="SvgjsPolyline4564" points="164.75,597.38 166.45,570.43 169.39,540.58 173.12,510.81 183.36,436.51 188.55,391.82 190.51,370.91 191.56,355.95 191.59,349.95 191.29,346.96 190.59,344.05 189.47,341.27 186.48,336.07 184.73,333.63 180.73,329.17 176.32,325.1 169.28,319.49 161.87,314.39 154.09,309.88 148.67,307.29 140.22,304.21 134.41,302.73 128.5,301.68 113.56,300.42 92.57,300.05" fill="none" stroke="#000000" stroke-width="1"/><polyline id="SvgjsPolyline4565" points="143.44,1.46 141.32,34.4 140.23,64.37 140.37,91.37 141.42,112.34 143.72,136.23 146.68,157.02 149.8,174.75 157.91,215.96 160.28,230.77 161.28,239.71 161.8,248.69 161.65,257.69 161.07,263.66 159.25,272.47 157.25,278.12 155.97,280.83 152.75,285.88 150.8,288.16 146.25,292.06 143.7,293.63 138.22,296.06 129.49,298.21 117.56,299.43 102.57,299.88" fill="none" stroke="#000000" stroke-width="1"/><polyline id="SvgjsPolyline4566" points="196.75,597.84 193.76,571.01 192.74,559.06 192.07,544.07 191.99,529.07 193,502.09 196.27,454.21 197.89,421.25 199.21,376.27 200.14,325.28" fill="none" stroke="#000000" stroke-width="1"/><polyline id="SvgjsPolyline4567" points="164.66,599.41 166.06,575.45 168.51,548.56 172.07,518.77 182.32,444.48 186.05,414.71 190.9,366.96 193.69,331.07 193.45,328.08 194.42,325.26 193.52,322.41 191.32,320.38 183.67,315.65 169.94,309.63 155.71,304.91 146.94,302.88 135.07,301.21 123.09,300.43 105.1,300.07" fill="none" stroke="#000000" stroke-width="1"/><polyline id="SvgjsPolyline4568" points="221.79,597.1 221.33,588.11 220.22,576.16 216.13,549.48 215.07,540.54 214.46,525.56 214.76,507.56 217.03,459.62 220.09,420.74 222.12,402.86 224.28,388.01 226.46,376.21 229.19,364.53 233.75,350.25 236.07,344.71 238.75,339.35 241.88,334.23 245.5,329.45 251.91,323.15 256.8,319.68 262.07,316.83 267.63,314.58 273.38,312.86 285.18,310.72 291.15,310.16 300.15,309.87 309.14,310.18 315.11,310.75 326.9,312.94 332.64,314.68 338.19,316.95 345.94,321.51 352.7,327.43 356.55,332.02 359.89,337 362.77,342.27 365.25,347.73 367.39,353.34 370.09,361.92 372.98,373.56 375.26,385.34 377.53,400.17 379.32,415.06 382.4,450.93 384.97,498.86 385.89,528.84 385.65,546.84 384.5,558.78 380.96,582.51 379.59,597.45" fill="none" stroke="#000000" stroke-width="1"/><polyline id="SvgjsPolyline4569" points="209.79,597.43 211.67,444.45 213.23,372.47 213.53,369.49 213.33,366.49 213.82,363.54 213.44,360.56 214.08,357.64 213.6,354.68 214.23,351.75 218.11,347.2 237.54,328.45 242.16,324.62 247.04,321.14 254.89,316.76 263.26,313.45 269.03,311.81 274.9,310.56 286.79,309.01 301.78,308.47 316.74,309.35 328.59,311.26 334.4,312.73 340.09,314.63 348.27,318.36 355.88,323.16 365.09,330.83 382.18,347.68 383.98,350.08 385.23,352.8 385.86,355.72 386.44,364.7 387.83,418.68 389.3,508.67 390.22,598.67" fill="none" stroke="#000000" stroke-width="1"/><polyline id="SvgjsPolyline4570" points="155.41,2.33 153.46,32.26 152.48,59.24 152.55,83.24 153.53,104.22 155.13,122.14 157.89,142.96 160.92,160.7 168.98,201.92 171.31,216.74 172.26,225.69 172.74,234.67 172.65,243.67 172.22,249.65 170.29,261.49 168.71,267.28 166.64,272.91 162.45,280.85 160.72,283.31 156.73,287.78 152.05,291.52 149.48,293.07 144.02,295.54 135.33,297.86 123.43,299.28" fill="none" stroke="#000000" stroke-width="1"/><polyline id="SvgjsPolyline4571" points="195.85,311.51 193.2,310.15 198.76,308.08" fill="none" stroke="#000000" stroke-width="1"/><polyline id="SvgjsPolyline4572" points="197.71,304.06 195.1,303.07 192.12,302.77 165.18,301.04 144.19,300.29 120.19,300.04" fill="none" stroke="#000000" stroke-width="1"/><polyline id="SvgjsPolyline4573" points="233.48,599.65 235.16,581.73 236.15,563.76 236.21,548.76 235.37,533.79 233.97,521.87 231.92,510.05 229.3,498.34 223.41,475.08 221.58,466.26 220.31,457.36 219.6,445.38 220.04,427.39 221.53,409.45 224.26,388.63 227.64,370.96 231.57,356.49 234.65,348.03 237.1,342.56 239.95,337.28 243.27,332.28 247.09,327.66 251.45,323.54 258.87,318.47 264.27,315.87 269.91,313.84 275.71,312.31 284.58,310.79 293.55,310.02 299.54,309.87 308.54,310.14 314.51,310.68 323.39,312.12 329.21,313.57 334.89,315.52 340.33,318.03 347.85,322.96 352.28,327 356.18,331.55 359.57,336.5 362.49,341.74 365,347.19 368.15,355.62 372.15,370.07 375.59,387.73 378.37,408.54 380.08,429.47 380.35,447.47 379.78,456.45 378.05,468.32 368.26,509.15 366.16,520.97 364.71,532.88 363.81,547.85 363.82,562.85 364.56,577.83 366.44,598.74" fill="none" stroke="#000000" stroke-width="1"/><polyline id="SvgjsPolyline4574" points="244.02,357.07 244.37,348.09 244.86,345.13 246.43,339.35 248.82,333.85 250.33,331.26 252.04,328.79 256.05,324.34 258.31,322.37 263.27,319 271.46,315.3 277.21,313.59 283.08,312.38 295.01,311.16 307.01,311.27 318.91,312.74 324.75,314.11 330.44,316 338.46,320.06 340.92,321.77 345.39,325.77 349.14,330.44 350.71,332.99 352.08,335.67 354.19,341.28 355.49,347.13 356.03,353.1 355.84,359.09 355,365.03 353.56,370.85 351.6,376.52 349.18,382.01 346.38,387.31 343.23,392.42 337.94,399.7 329.9,408.6 325.44,412.61 320.66,416.23 315.52,419.32 310.01,421.69 304.19,423.1 301.2,423.37 295.23,423.01 292.29,422.38 289.43,421.49 283.96,419.04 278.85,415.89 274.1,412.23 269.67,408.19 265.54,403.84 261.69,399.24 256.45,391.93 250.56,381.48 248.19,375.97 246.27,370.29 244.89,364.45 244.11,358.51" fill="none" stroke="#000000" stroke-width="1"/><polyline id="SvgjsPolyline4575" points="214.57,351.85 213.61,349.03 214.94,346.35 213.72,343.65 215.3,341.11 213.86,338.53 215.68,336.17 213.76,333.92 215.39,331.43 217.83,329.69 233.55,320.93 247.22,314.76 252.88,312.77 261.55,310.4 267.43,309.19 276.33,307.87 291.29,306.73 309.28,306.75 324.23,307.94 333.13,309.29 339,310.52 350.5,313.91 356.09,316.08 364.27,319.84 380.07,328.46 382.47,330.26 384.32,332.59 385.16,335.44 385.78,344.41 387.65,410.38 389.03,488.37 390.23,599.36" fill="none" stroke="#000000" stroke-width="1"/><polyline id="SvgjsPolyline4576" points="399.17,334.49 400.11,337.3 399.06,339.87 400.48,342.49 399.34,345.01 400.83,347.6 399.62,350.2 400.65,353 400.24,355.96 399.26,358.67 398.8,361.43 398.07,367.13 398.07,370.06 399.66,510.87 401.23,597.85" fill="none" stroke="#000000" stroke-width="1"/><polyline id="SvgjsPolyline4577" points="167.59,0.22 165.9,27.17 165.15,48.15 165.11,69.15 165.78,87.14 167.17,105.08 169.76,125.92 172.69,143.68 179.31,179.07 181.42,193.92 182.38,205.88 182.57,214.87 182.28,223.87 181.5,232.83 179.1,247.63 176.07,259.24 171.76,270.43 169,275.75 165.73,280.78 161.89,285.38 159.74,287.48 155,291.14 152.43,292.69 149.75,294.04 144.14,296.17 135.37,298.16" fill="none" stroke="#000000" stroke-width="1"/><polyline id="SvgjsPolyline4578" points="193.87,288.56 196.48,289.87 190.83,291.86 184.99,293.25 173.23,295.62 161.39,297.55 152.45,298.58 140.48,299.4 110.49,299.96" fill="none" stroke="#000000" stroke-width="1"/><polyline id="SvgjsPolyline4579" points="245.72,597.91 250.6,568.31 252.59,550.42 253.26,532.44 252.47,517.47 250.32,502.63 246.91,488.02 242.52,473.68 231.59,442.54 227.55,428.11 225.93,419.25 225.27,413.29 224.93,407.3 224.97,398.3 225.89,386.34 227.63,374.47 230.18,362.75 233.69,351.28 237.14,342.97 241.5,335.1 246.97,327.97 253.63,321.93" fill="none" stroke="#000000" stroke-width="1"/><polyline id="SvgjsPolyline4580" points="362.77,383.97 361.29,389.79 358.37,398.29 356.03,403.82 352.05,411.89 347.64,419.73 341.23,429.88 334.31,439.68 328.77,446.77 322.84,453.54 318.59,457.77 313.99,461.62 308.91,464.81 306.16,466 303.27,466.79 300.29,467.11 297.31,466.9 294.39,466.19 288.98,463.63 284.11,460.13 277.56,453.96 271.6,447.22 264.25,437.74 259.09,430.37 252.66,420.24 246.83,409.75 243,401.61 240.77,396.04 238.06,387.46 236.76,381.61 235.66,372.68 235.53,366.68 235.89,360.69 237.37,351.82 238.98,346.04 241.13,340.45 243.86,335.1 247.2,330.12 251.16,325.63 253.37,323.6 258.18,320.02 263.42,317.11 268.97,314.84 277.64,312.44 283.55,311.4 292.5,310.5 301.5,310.28 310.49,310.72 319.41,311.87 325.28,313.12 331.02,314.84 336.57,317.11 344.28,321.72 346.63,323.59 350.9,327.8 356.14,335.1 358.87,340.44 361.02,346.04 362.63,351.82 363.74,357.71 364.35,363.68 364.47,369.68 364.09,375.66 363.24,381.6" fill="none" stroke="#000000" stroke-width="1"/><polyline id="SvgjsPolyline4581" points="363.8,345.17 365.83,350.82 368.2,359.5 369.38,365.38 370.52,374.3 370.86,383.29 370.58,389.29 369.89,395.25 368.79,401.14 365.58,412.7 361.49,423.98 355.47,437.72 341.39,467.56 336.67,478.59 333.47,487.01 329.19,501.37 327.48,510.21 326.78,516.17 326.46,522.16 326.67,531.15 327.21,537.13 328.53,546.03 332.33,563.62 341.51,598.43" fill="none" stroke="#000000" stroke-width="1"/><polyline id="SvgjsPolyline4582" points="371.99,370.71 374.32,385.52 375.2,397.49 374.93,409.48 373.79,418.4 371.88,427.19 369.34,435.83 356.27,472.57 351.78,486.88 349.53,495.59 347.71,504.41 345.76,519.27 345.21,534.26 346.16,552.23 348.85,573.05 353.54,599.64" fill="none" stroke="#000000" stroke-width="1"/><polyline id="SvgjsPolyline4583" points="256,356.48 254.64,350.65 254.28,347.67 254.33,341.68 255.49,335.8 256.52,332.98 259.48,327.78 263.51,323.35 265.85,321.47 270.98,318.38 276.53,316.1 285.25,313.9 294.18,312.84 306.17,312.87 312.14,313.49 318.04,314.57 326.61,317.28 331.95,320 334.44,321.67 338.86,325.71 342.31,330.6 344.61,336.13 345.3,339.05 345.71,342.02 345.69,348.02 345.31,350.99 343.89,356.82 340.41,365.1 335.63,372.72 329.78,379.54 322.97,385.42 315.26,390.04 309.67,392.19 306.76,392.92 300.81,393.6 297.81,393.54 291.89,392.61 286.21,390.7 283.49,389.43 278.34,386.35 271.37,380.68 265.35,374 260.36,366.52 256.62,358.35" fill="none" stroke="#000000" stroke-width="1"/><polyline id="SvgjsPolyline4584" points="319.68,401.73 311.62,405.69 305.84,407.27 299.87,407.81 296.87,407.65 290.99,406.53 288.14,405.6 282.69,403.1 275.19,398.15 268.49,392.14 264.47,387.69 260.8,382.95 256,375.34 252.22,367.18 249.69,358.55 248.73,349.62 249.14,343.64 249.69,340.69 250.47,337.79 252.8,332.27 256.1,327.27 260.28,322.98 262.65,321.14 265.16,319.5 270.51,316.8 276.17,314.8 281.99,313.38 287.91,312.43 293.89,311.89 302.89,311.74 308.87,312.09 314.83,312.81 320.72,313.97 326.47,315.65 332.01,317.96 334.65,319.38 339.54,322.83 343.76,327.09 345.54,329.5 348.4,334.77 349.46,337.58 350.83,343.41 351.16,346.39 351.27,349.39 350.85,355.37 349.69,361.25 347.86,366.97 345.48,372.47 342.62,377.74 339.34,382.76 335.68,387.52 331.67,391.98 327.31,396.09 320.1,401.47" fill="none" stroke="#000000" stroke-width="1"/><polyline id="SvgjsPolyline4585" points="330.34,424.04 326.08,428.27 321.53,432.18 316.65,435.66 311.38,438.52 305.7,440.43 302.75,440.94 299.75,441.09 293.81,440.32 290.94,439.45 285.5,436.95 280.46,433.7 275.78,429.94 267.29,421.47 263.41,416.9 257.99,409.71 253.06,402.18 250.08,396.98 246.13,388.89 243.93,383.31 242.14,377.59 240.81,371.74 240.01,365.8 239.77,359.8 240.13,353.82 241.1,347.9 242.72,342.13 245.02,336.59 248.02,331.4 251.73,326.69 256.1,322.59 258.51,320.8 263.67,317.74 269.17,315.36 274.89,313.56 280.74,312.26 289.66,311.06 298.65,310.61 307.64,310.85 313.62,311.4 319.55,312.31 325.4,313.63 331.11,315.46 336.6,317.88 341.74,320.97 346.38,324.76 350.4,329.21 352.15,331.64 356.33,339.6 358.25,345.28 359.51,351.14 360.15,357.1 360.17,363.1 359.62,369.07 358.52,374.97 356.93,380.75 354.9,386.4 352.5,391.9 348.31,399.86 345.19,404.98 340.08,412.38 336.4,417.13 330.48,423.9" fill="none" stroke="#000000" stroke-width="1"/><polyline id="SvgjsPolyline4586" points="209.78,598.91 210.66,511.92 212.1,421.93 213.25,370.95 213.62,367.98 213.34,364.99 213.94,362.05 213.43,359.11 214.28,356.24 213.53,353.35 214.65,350.58 213.64,347.79 215.02,345.14 213.75,342.46 215.39,339.96 213.88,337.43 215.75,335.1 214.01,332.72 216.1,330.58 214.13,328.39 216.4,326.45 214.17,324.52 216.57,322.74 214.1,321.09 216.59,319.44 211.37,316.59" fill="none" stroke="#000000" stroke-width="1"/><polyline id="SvgjsPolyline4587" points="213.81,314.41 216.43,313.01 225.16,310.85 239.89,307.97 254.72,305.78 266.66,304.59 278.64,303.84 305.63,303.39 320.62,303.8 332.6,304.53 344.54,305.69 356.43,307.35 371.18,310.09 379.92,312.19 382.69,313.32 384.28,315.62 385.12,327.35 386.03,351.34 387.8,417.31 389,486.3 390.21,597.29" fill="none" stroke="#000000" stroke-width="1"/><polyline id="SvgjsPolyline4588" points="574.13,300 484.14,300.19 472.16,300.85 466.21,301.62 460.33,302.8 451.74,305.48 443.52,309.14 435.67,313.54 428.17,318.51 421.1,324.07 416.84,328.29 413.34,333.15 410.71,338.54 409.16,344.32 408.67,353.3 409.21,365.28 410.98,386.21 415.63,427.95 426.59,508.2 430.31,537.97 433.47,570.82 435.05,597.77" fill="none" stroke="#000000" stroke-width="1"/><polyline id="SvgjsPolyline4589" points="400.06,340.45 401.51,403.44 402.85,433.4 404.7,448.28 413.21,498.57 417.18,528.3 419.03,546.21 420.43,564.15 421.21,579.13 421.67,597.13" fill="none" stroke="#000000" stroke-width="1"/><polyline id="SvgjsPolyline4590" points="179.56,1.1 178.7,22.08 178.49,37.08 178.8,55.08 179.61,70.06 180.65,82.01 182.46,96.9 189.42,141.35 190.33,150.31 190.84,159.29 190.93,171.29 190.49,183.28 188.39,207.19 185.35,227.96 181.61,245.56 177.27,259.92 172.58,270.96 169.67,276.2 166.27,281.14 162.33,285.66 160.14,287.71 157.81,289.6 152.75,292.82 150.06,294.14 144.44,296.22" fill="none" stroke="#000000" stroke-width="1"/><polyline id="SvgjsPolyline4591" points="201.71,2.35 200.67,101.35 199.49,173.34 197.51,245.3 197.68,248.29 197.15,251.25 197.59,254.21 196.74,257.08 197.48,259.96 196.22,262.68 197.44,265.37 196.15,268.06 196.98,270.9 194.95,273.1 192.57,274.93 175.05,286.51 167.19,290.87 158.9,294.38 150.26,296.85 141.39,298.39 129.44,299.41 114.45,299.86" fill="none" stroke="#000000" stroke-width="1"/><polyline id="SvgjsPolyline4592" points="206.22,281.63 206.54,284.54" fill="none" stroke="#000000" stroke-width="1"/><polyline id="SvgjsPolyline4593" points="257.31,599.98 266.26,565.11 268.87,553.4 270.48,544.54 271.62,535.61 272.14,526.63 271.91,517.64 271.31,511.67 270.36,505.74 268.34,496.98 265.73,488.36 262.67,479.9 256.87,466.07 240.56,430.65 235.11,416.67 232.53,408.06 231.2,402.2 230.24,396.28 229.52,387.32 229.64,378.32 230.99,366.4 232.85,357.6 235.47,348.99 238.97,340.71 241.88,335.46 247.24,328.24 251.5,324.02" fill="none" stroke="#000000" stroke-width="1"/><polyline id="SvgjsPolyline4594" points="329.22,464.19 315.85,484.12 312.21,488.89 308.22,493.36 305.98,495.35 303.45,496.96 300.59,497.79 297.64,497.41 294.97,496.05 290.51,492.05 286.66,487.46 279.65,477.72 271.41,465.18 260.32,447.35 252.74,434.41 245.68,421.18 241.86,413.03 238.5,404.68 236.61,398.99 234.43,390.26 233.48,384.34 232.87,375.36 233.01,369.36 234,360.42 235.19,354.54 237.78,345.93 240.1,340.4 242.94,335.12 246.34,330.18 250.34,325.71 254.89,321.81 259.93,318.56 265.33,315.95 270.98,313.93 279.73,311.84 285.66,310.95 294.63,310.24 303.63,310.18 312.61,310.76 321.51,312.07 327.35,313.45 333.05,315.31 338.53,317.73 343.69,320.8 348.39,324.51 350.55,326.6 354.42,331.18 357.7,336.19 360.43,341.54 362.64,347.11 364.39,352.85 365.7,358.7 366.87,367.62 367.13,373.62 366.96,379.61 365.89,388.54 364.64,394.41 363.02,400.19 359.98,408.66 353.76,422.3 343.64,440.7 329.52,463.71" fill="none" stroke="#000000" stroke-width="1"/><polyline id="SvgjsPolyline4595" points="305.1,453.18 302.14,453.69 299.15,453.78 296.17,453.45 293.26,452.73 287.76,450.34 282.73,447.08 278.1,443.27 273.78,439.11 267.75,432.43 262.15,425.39 256.94,418.05 252.12,410.45 247.75,402.58 243.94,394.43 241.79,388.83 239.28,380.19 238.17,374.3 237.55,368.33 237.46,362.33 237.92,356.35 238.92,350.44 240.49,344.65 242.65,339.06 247.09,331.25 250.87,326.59 253.01,324.48 257.7,320.75 262.86,317.7 271.19,314.33 276.98,312.77 282.88,311.66 291.82,310.68 297.82,310.43 306.81,310.6 312.79,311.09 321.68,312.48 327.5,313.93 333.17,315.9 338.59,318.46 343.63,321.7 348.17,325.61 352.11,330.14 353.82,332.6 356.77,337.82 359.07,343.36 360.77,349.11 361.9,355 362.48,360.97 362.51,366.97 362.02,372.95 360.34,381.78 358.65,387.54 355.42,395.93 352.87,401.36 348.58,409.27 343.82,416.91 336.86,426.69 331.19,433.68 325.07,440.27 320.67,444.35 315.94,448.03 310.79,451.09 305.17,453.17" fill="none" stroke="#000000" stroke-width="1"/><polyline id="SvgjsPolyline4596" points="300.5,479.11 297.52,478.88 294.65,478.02 291.96,476.69 287.11,473.17 282.78,469.03 276.84,462.27 271.32,455.16 264.37,445.38 256.21,432.79 250.13,422.45 245.91,414.5 239.88,400.78 237.11,392.21 235.73,386.38 234.47,377.47 234.2,371.48 234.67,362.49 235.55,356.56 236.89,350.71 238.7,345 241.03,339.47 243.92,334.21 247.4,329.33 251.48,324.94 256.13,321.15 258.64,319.51 263.94,316.7 269.52,314.52 275.29,312.87 281.17,311.68 287.11,310.87 296.09,310.26 302.09,310.21 311.07,310.69 319.99,311.88 325.85,313.15 331.59,314.9 337.13,317.2 342.36,320.13 347.16,323.72 351.42,327.94 355.09,332.69 358.15,337.84 360.64,343.3 362.61,348.96 364.1,354.77 365.45,363.67 365.79,369.66 365.66,375.65 365.07,381.62 364.03,387.53 361.7,396.22 358.6,404.66 354.9,412.87 346.29,428.67 339.95,438.86 333.25,448.81 326.16,458.49 320.47,465.47 314.25,471.96 309.58,475.72 307.01,477.26 304.24,478.42 301.32,479.05" fill="none" stroke="#000000" stroke-width="1"/><polyline id="SvgjsPolyline4597" points="313.91,309.34 325.72,311.41 331.48,313.06 337.06,315.26 344.86,319.73 347.25,321.55 351.63,325.64 357.14,332.74 360.14,337.93 362.64,343.39 364.71,349.02 366.36,354.78 367.64,360.65 368.84,369.56 369.14,375.55 369.01,381.55 367.98,390.49 366,399.26 362.14,410.62 358.6,418.89 353.34,429.68 330.39,471.84 323.6,485.21 317.75,499.01 314.98,507.57 313.67,513.43 313.01,519.39 313.09,525.38 313.86,531.33 315.13,537.19 318.54,548.69 330.42,582.68 336.01,599.79" fill="none" stroke="#000000" stroke-width="1"/><polyline id="SvgjsPolyline4598" points="267.47,352.95 265.17,347.42 263.98,341.55 264.19,335.57 264.9,332.66 266.04,329.89 267.58,327.32 269.49,325 271.69,322.97 276.73,319.73 282.28,317.48 291.06,315.55 300.03,314.95 309.01,315.55 317.78,317.5 323.33,319.76 328.36,323.01 330.56,325.05 332.45,327.37 333.99,329.95 335.12,332.72 335.82,335.64 336.11,338.62 335.57,344.58 333.78,350.3 331,355.61 327.45,360.44 323.24,364.71 320.92,366.6 315.88,369.86 310.4,372.27 304.58,373.69 298.6,374 292.66,373.16 286.98,371.26 281.7,368.43 276.9,364.83 274.71,362.78 270.8,358.24 267.59,353.18" fill="none" stroke="#000000" stroke-width="1"/><polyline id="SvgjsPolyline4599" points="215.45,301 218.45,300.92 212.46,300.71" fill="none" stroke="#000000" stroke-width="1"/><polyline id="SvgjsPolyline4600" points="213.88,295.63 216.75,296.3 219.74,296.57 243.7,297.84 264.69,298.52 291.69,298.88 339.68,298.41 366.66,297.36 381.62,296.25" fill="none" stroke="#000000" stroke-width="1"/><polyline id="SvgjsPolyline4601" points="395.16,309.2 395.89,313.69" fill="none" stroke="#000000" stroke-width="1"/><polyline id="SvgjsPolyline4602" points="573.95,297.56 571.58,295.74 573.34,293.35 572.48,290.49 577.41,283.05 577.91,271.29 579.01,151.3 579.84,1.3" fill="none" stroke="#000000" stroke-width="1"/><polyline id="SvgjsPolyline4603" points="573.66,300.88 570.76,301.61 572.42,304.01 571.49,306.86 572.11,309.79 576.16,314.21 577.05,316.9 577.18,328.82 575.8,406.81 574.25,469.79 572.11,535.75 569.62,598.7" fill="none" stroke="#000000" stroke-width="1"/><polyline id="SvgjsPolyline4604" points="573.65,301.54 571.42,303.52 563.69,308.1 556.94,314.04 551.27,321.01 546.76,328.79 544.24,334.24 540.99,342.63 536.63,356.98 532.67,374.53 529.8,392.3 528.13,407.21 526.9,425.16 526.43,440.16 526.51,461.15 527.7,491.13 532.39,565.98 533.72,598.95" fill="none" stroke="#000000" stroke-width="1"/><polyline id="SvgjsPolyline4605" points="573.98,297.92 571.45,296.33 566.07,293.66 561.22,290.15 557.05,285.85 553.63,280.93 551.18,275.46 549.48,269.71 547.94,260.84 547.2,251.88 547.03,236.88 548.04,215.91 555.8,129.26 558.86,84.36 560.33,42.39 560.31,0.39" fill="none" stroke="#000000" stroke-width="1"/><polyline id="SvgjsPolyline4606" points="574.1,300.31 559.21,302.1 553.43,303.67 550.66,304.82 545.54,307.94 543.25,309.87 537.06,316.4 533.56,321.27 530.53,326.44 527.85,331.81 524.33,340.09 518.64,357.16 513.63,377.55 510.49,395.27 508.31,413.14 506.86,434.09 506.43,455.08 506.73,473.08 507.49,491.06 512.44,565.9 514.07,598.86" fill="none" stroke="#000000" stroke-width="1"/><polyline id="SvgjsPolyline4607" points="573.31,299.7 561.34,298.85 555.41,297.93 549.71,296.1 547.09,294.64 544.76,292.76 542.77,290.51 539.5,285.49 537.11,279.99 535.62,274.18 534.48,265.26 534.2,250.27 535.23,232.3 536.94,214.39 544.48,145.8 546.29,124.88 547.84,100.93 548.8,76.95 549.14,55.95 549,31.95 548.18,1.96" fill="none" stroke="#000000" stroke-width="1"/><polyline id="SvgjsPolyline4608" points="572.6,299.96 554.6,299.76 545.61,299.34 539.67,298.57 536.75,297.85 533.97,296.75 531.42,295.17 529.25,293.1 527.5,290.67 524.77,285.33 523.71,282.53 521.88,273.73 521.38,267.75 521.29,258.75 522.41,240.79 524.38,222.9 529.79,181.25 532.92,154.43 535.14,130.54 536.7,106.59 537.49,85.6 537.75,61.6 537.33,34.61 536.1,1.63" fill="none" stroke="#000000" stroke-width="1"/><polyline id="SvgjsPolyline4609" points="573.81,300.04 552.81,300.4 546.82,300.79 540.88,301.59 535.11,303.22 532.38,304.46 527.41,307.79 525.19,309.81 519.18,316.51 515.74,321.42 511.29,329.24 507.48,337.39 503.1,348.56 500.24,357.09 496.91,368.62 492.86,386.16 489.46,406.88 488.13,418.8 487.21,430.77 486.51,451.75 486.67,469.75 487.53,490.73 492.93,565.54 494.78,598.48" fill="none" stroke="#000000" stroke-width="1"/><polyline id="SvgjsPolyline4610" points="575.22,300 533.22,299.71 527.24,299.29 521.35,298.17 518.56,297.06 516.06,295.41 513.98,293.26 512.36,290.74 509.9,285.27 508.32,279.49 507.52,273.54 507.25,267.55 507.44,258.56 508.09,249.58 510.16,231.7 517.01,184.19 520.06,160.39 522.49,136.51 524.16,112.57 525.1,85.59 525.15,61.59 524.5,34.6 523.04,1.63" fill="none" stroke="#000000" stroke-width="1"/><polyline id="SvgjsPolyline4611" points="552.73,300.03 531.74,300.39 522.8,301.41 517.06,303.11 514.35,304.41 511.8,305.98 507.21,309.83 501.15,316.48 497.62,321.33 494.44,326.42 490.19,334.35 486.42,342.52 482,353.67 478.17,365.04 474.88,376.59 470.95,394.15 467.82,414.91 466.32,432.84 465.77,453.83 466.02,468.83 467.05,489.8 473.15,564.55 475.22,597.49" fill="none" stroke="#000000" stroke-width="1"/><polyline id="SvgjsPolyline4612" points="530.13,299.96 518.14,299.75 509.18,298.93 506.26,298.24 503.48,297.13 500.98,295.47 498.91,293.31 497.3,290.78 494.89,285.29 493.35,279.5 492.63,273.54 492.58,261.55 493.89,246.61 495.92,231.75 503.46,184.34 506.35,163.54 508.69,142.68 510.58,118.75 511.6,94.77 511.78,67.78 511,37.79 509.24,1.83" fill="none" stroke="#000000" stroke-width="1"/><polyline id="SvgjsPolyline4613" points="516.97,300.26 510.98,300.65 505.06,301.56 502.16,302.33 496.65,304.7 494.1,306.27 489.42,310.02 483.13,316.45 479.38,321.13 474.34,328.58 469.84,336.38 465.79,344.41 462.12,352.63 457.79,363.82 454.96,372.36 451.73,383.92 449.73,392.69 447.19,407.47 445.61,422.38 444.82,440.36 445.02,458.36 446.63,485.31 454.04,562.96 456.46,598.87" fill="none" stroke="#000000" stroke-width="1"/><polyline id="SvgjsPolyline4614" points="515.26,299.96 503.26,299.72 494.32,298.84 491.4,298.14 488.6,297.05 486.05,295.48 483.88,293.42 482.14,290.97 479.48,285.6 477.72,279.87 476.85,273.94 476.56,267.95 476.67,261.95 478.02,247.02 480.19,232.18 487.88,187.84 491.08,167.08 494.01,143.26 496.01,119.35 497.06,95.37 497.19,68.38 496.42,41.39 494.37,2.44" fill="none" stroke="#000000" stroke-width="1"/><polyline id="SvgjsPolyline4615" points="517.93,300.03 499.94,300.44 493.97,301.05 488.11,302.29 482.5,304.41 477.31,307.41 472.58,311.09 468.17,315.16 462.06,321.76 456.57,328.89 451.58,336.38 445.62,346.79 441.63,354.86 438.09,363.13 435.02,371.59 431.72,383.13 429.36,394.89 427.63,409.78 427.07,424.77 427.52,442.76 428.55,457.73 430.26,475.64 436.88,532.26 439.38,556.13 441.13,577.05 442.37,598.02" fill="none" stroke="#000000" stroke-width="1"/><polyline id="SvgjsPolyline4616" points="500.44,299.92 488.45,299.47 482.5,298.74 476.74,297.11 474.07,295.75 471.67,293.94 469.63,291.75 466.32,286.75 464.98,284.06 463.14,278.36 461.89,269.46 461.92,257.47 463.45,242.55 465.8,227.74 473.46,186.44 476.88,165.72 479.99,141.93 481.89,121.01 483.08,97.04 483.28,70.05 482.5,43.06 480.12,1.13" fill="none" stroke="#000000" stroke-width="1"/><polyline id="SvgjsPolyline4617" points="557.84,300 488.84,299.89 476.85,299.43 467.93,298.27 462.17,296.6 459.44,295.36 456.88,293.8 452.19,290.06 450.06,287.95 446.5,283.13 445.07,280.5 442.84,274.93 441.32,269.13 440.11,260.22 439.86,251.23 440.58,239.25 441.67,230.32 443.59,218.47 452.23,174.31 456.22,150.65 458.87,129.82 460.8,105.9 461.59,81.91 461.39,57.91 460.24,30.94 458.28,1" fill="none" stroke="#000000" stroke-width="1"/><polyline id="SvgjsPolyline4618" points="573.3,300 483.3,299.96 468.31,299.72 456.33,299.03 444.44,297.4 429.84,293.98 418.4,290.38 409.93,287.34 407.21,286.08 404.9,284.21 404.02,281.47 403.38,272.51 401.11,200.55 399.5,113.56 398.29,2.57" fill="none" stroke="#000000" stroke-width="1"/><polyline id="SvgjsPolyline4619" points="500.09,300.08 485.11,300.72 479.17,301.53 473.34,302.95 465.05,306.4 459.91,309.5 455.1,313.08 448.41,319.1 440.14,327.79 434.44,334.75 429.22,342.09 426.06,347.18 421.93,355.17 418.71,363.57 417.15,369.37 415.67,378.24 414.95,390.21 415.16,402.21 416.15,417.17 419.32,447 428.43,515.4 431.65,542.21 434.44,572.07 436,599.03" fill="none" stroke="#000000" stroke-width="1"/><polyline id="SvgjsPolyline4620" points="477.55,300.1 465.55,300.41 453.58,301.25 444.66,302.4 435.8,304.01 421.2,307.45 412.55,309.91 409.75,310.97 407.2,312.54 405.9,315.14 405.82,321.12 407.16,342.07 409.56,371.98 411.58,392.88 416.45,434.59 426.27,505.92 430.03,535.69 433.28,568.52 435.06,598.47" fill="none" stroke="#000000" stroke-width="1"/><polyline id="SvgjsPolyline4621" points="213.71,2.45 214.44,11.42 217.42,32.21 218.73,44.13 219.41,56.11 219.54,68.11 218.81,89.1 215.18,142.98 213.78,172.94 212.28,223.92 211.44,271.89" fill="none" stroke="#000000" stroke-width="1"/><polyline id="SvgjsPolyline4622" points="269.35,599.98 273.77,588.83 278.67,577.87 282.78,569.87 287.46,562.18 291.12,557.44 293.23,555.31 295.63,553.52 298.39,552.38 301.37,552.33 304.16,553.4 306.59,555.15 310.64,559.56 314.06,564.49 318.53,572.3 322.51,580.37 326.14,588.61 330.54,599.77" fill="none" stroke="#000000" stroke-width="1"/><polyline id="SvgjsPolyline4623" points="264.9,597.67 270.67,580.62 280.84,552.4 285.44,538.12 286.87,532.3 287.81,526.37 288.05,520.38 287.48,514.41 286.2,508.56 284.38,502.84 278.52,489.04 270.32,473.01 248.76,433.52 243.43,422.77 239.8,414.53 236.65,406.1 234.17,397.46 232.52,388.61 231.79,379.65 232,370.65 233.65,358.78 235.92,350.07 239.14,341.67 243.47,333.79 247.05,328.98 249.05,326.75 253.48,322.71 258.41,319.3" fill="none" stroke="#000000" stroke-width="1"/><polyline id="SvgjsPolyline4624" points="367.35,360.76 368.17,366.7 368.57,372.69 368.53,378.69 367.63,387.64 366.47,393.52 364,402.17 358.42,416.09 351.71,429.51 344.44,442.62 308.02,504.73 304.52,509.59 298.72,509.91 296.32,508.15 294.36,505.88 289.29,498.45 262.97,454.77 249.62,431.3 242.91,417.89 238.31,406.81 234.81,395.34 233.15,386.49 232.44,377.53 232.5,371.53 232.98,365.55 233.87,359.61 235.16,353.76 236.87,348.01 239.03,342.41 241.69,337.03 246.71,329.58 248.67,327.31 253.03,323.19 255.4,321.36 260.49,318.19 265.93,315.66 271.6,313.71" fill="none" stroke="#000000" stroke-width="1"/><polyline id="SvgjsPolyline4625" points="301.14,522.45 299.63,519.87 310.24,541.4 318.93,560.51 326.84,579.96 333.91,599.74" fill="none" stroke="#000000" stroke-width="1"/><polyline id="SvgjsPolyline4626" points="278.11,347.41 275.22,342.17 274.35,339.31 273.97,336.33 274.14,333.34 274.93,330.46 276.32,327.8 278.22,325.48 280.5,323.54 285.78,320.72 291.54,319.06 297.49,318.33 303.48,318.39 309.41,319.26 315.12,321.09 320.27,324.13 322.44,326.19 324.19,328.63 325.39,331.37 325.98,334.3 325.97,337.3 325.42,340.25 324.41,343.07 323.01,345.72 321.3,348.18 317.09,352.44 314.67,354.21 309.33,356.92 303.53,358.39 297.54,358.51 294.58,358.06 288.89,356.17 286.24,354.77 283.75,353.1 279.38,349.01" fill="none" stroke="#000000" stroke-width="1"/><polyline id="SvgjsPolyline4627" points="279.76,0.41 263.56,42.39 253.62,70.7 243.98,102.26 236.6,131.33 230.58,160.72 225.41,193.31 221.54,226.08 218.41,261.94 218.43,264.94 217.69,267.84 218.49,270.72 216.98,273.27 218.53,275.81 216.41,277.88 218.44,280.04 215.97,281.69 218.3,283.53 223.86,285.77 232.55,288.09 241.38,289.87 262.16,292.84 274.11,293.88 286.1,294.5 304.09,294.72 319.09,294.28 334.05,293.22 348.94,291.45 363.72,288.89 375.37,286.02 378.18,284.99 380.76,283.47 382.23,280.95 382.39,274.98 380.46,248.05 378.55,227.14 375.85,203.29 372.96,182.49 370.54,167.69 367.23,150 364.09,135.33 360.61,120.74 355.96,103.35 351.71,88.96 346.18,71.83 340.22,54.85 333.88,38.01 319.09,1.92" fill="none" stroke="#000000" stroke-width="1"/><polyline id="SvgjsPolyline4628" points="398.29,297.62 398.4,296.95" fill="none" stroke="#000000" stroke-width="1"/><polyline id="SvgjsPolyline4629" points="589.07,289.69 588.4,284.35 588.26,275.44 590.04,176.46 592.33,92.49 595.58,2.55" fill="none" stroke="#000000" stroke-width="1"/><polyline id="SvgjsPolyline4630" points="574.55,299.31 571.87,298.01 572.83,295.2 573.14,289.21 571.95,286.46 567.22,278.81 564.38,273.52 561.99,268.02 560.15,262.31 558.79,256.47 557.42,247.58 556.66,238.61 556.32,229.62 556.48,211.62 557.49,190.65 563.71,106.88 566.17,67.96 567.75,34.99 568.78,2.01" fill="none" stroke="#000000" stroke-width="1"/><polyline id="SvgjsPolyline4631" points="584.24,304.7 586.6,308.47" fill="none" stroke="#000000" stroke-width="1"/><polyline id="SvgjsPolyline4632" points="595.24,299.72 592.25,299.48 593.01,302.33 592.22,314.3 591.78,317.27 588.04,325.42 587.57,331.37 586.48,448.37 585.65,598.36" fill="none" stroke="#000000" stroke-width="1"/><polyline id="SvgjsPolyline4633" points="570.32,300.42 573.3,300.71 571.92,303.34 571.96,306.34 571.35,309.28 564.01,325.7 560.71,334.07 557.15,345.53 554.37,357.2 552.21,369.01 550.56,380.89 548.53,404.8 547.92,425.79 548.26,449.79 549.39,473.76 553.92,545.62 554.94,572.6 555.33,599.59" fill="none" stroke="#000000" stroke-width="1"/><polyline id="SvgjsPolyline4634" points="574.74,300.64 572.32,299.11 571.36,311.06 567.47,334.75 565.97,346.65 564.99,358.61 564.42,373.6 564.42,388.6 564.99,403.59 569.98,463.37 571.16,490.35 571.29,511.35 570.94,535.34 568.89,598.31" fill="none" stroke="#000000" stroke-width="1"/><polyline id="SvgjsPolyline4635" points="493.42,299.98 472.43,299.58 463.46,298.82 457.55,297.83 451.77,296.22 446.26,293.85 443.66,292.35 438.86,288.77 434.62,284.53 430.8,279.9 427.32,275.02 424.21,269.89 418.78,259.19 403.63,226.54 402.74,223.68 401.8,217.76 401.17,202.77 399.49,112.79 398.28,1.8" fill="none" stroke="#000000" stroke-width="1"/><polyline id="SvgjsPolyline4636" points="491.45,299.96 473.46,299.54 464.5,298.68 455.74,296.69 450.21,294.37 447.63,292.85 445.2,291.09 440.87,286.94 439,284.6 435.79,279.53 433.25,274.1 431.28,268.44 429.81,262.62 428.78,256.71 428.14,250.75 427.61,238.76 427.89,229.77 428.68,220.8 431.34,203 438.85,164.73 442.46,144.05 445.24,123.24 447.08,102.32 448.02,78.34 447.95,57.34 446.89,30.36 444.9,0.43" fill="none" stroke="#000000" stroke-width="1"/><polyline id="SvgjsPolyline4637" points="389.33,254.15 387.88,251.54 389.07,249 387.53,246.44 388.78,243.82 387.3,241.22 388.56,238.51 387.26,235.82 388.34,233.03 387.38,230.2 388.09,227.3 387.29,224.41 389.02,218.72 389.97,213.01 390.07,201.1 388.8,87.11 387.18,0.12" fill="none" stroke="#000000" stroke-width="1"/><polyline id="SvgjsPolyline4638" points="531.6,300 489.6,299.96 471.61,299.51 459.69,298.17 451.03,295.77 445.63,293.18 443.1,291.56 438.47,287.75 434.46,283.3 431.01,278.39 428.07,273.16 423.36,262.13 419.09,247.76 415.6,230.11 413.54,212.23 412.84,200.25 412.71,191.25 413.19,179.27 414.39,167.33 416.16,155.46 423.31,114.07 425.55,96.22 426.82,81.27 427.65,63.29 427.79,45.29 427.24,24.3 425.91,0.34" fill="none" stroke="#000000" stroke-width="1"/><polyline id="SvgjsPolyline4639" points="476.85,299.75 467.86,299.25 461.9,298.56 453.14,296.55 447.59,294.29 444.96,292.85 442.46,291.19 437.89,287.31 433.92,282.82 430.51,277.88 427.58,272.65 425.06,267.2 422.87,261.62 420.08,253.06 415.8,235.59 412.69,217.86 409.73,194.04 407.82,170.12 407.32,149.13 407.66,140.14 408.79,128.19 415.12,86.68 417.63,62.81 418.46,47.83 418.77,32.84 418.17,2.85" fill="none" stroke="#000000" stroke-width="1"/><polyline id="SvgjsPolyline4640" points="225.7,1.82 226.18,22.82 225.23,46.79 223.06,70.69 216.81,124.33 214.61,154.25 212.59,211.21 211.51,262.2 211.54,273.93" fill="none" stroke="#000000" stroke-width="1"/><polyline id="SvgjsPolyline4641" points="282.68,598.78 288.24,591.72 292.83,587.87 295.49,586.48 298.37,585.69 301.36,585.65 304.27,586.39 306.94,587.73 309.37,589.49 313.58,593.75 317.17,598.56" fill="none" stroke="#000000" stroke-width="1"/><polyline id="SvgjsPolyline4642" points="274.55,598.47 278.63,590.45 281.7,585.3 287.17,578.17 289.36,576.12 291.84,574.43 297.4,572.21 300.37,571.88 303.31,572.42 306.02,573.68 310.67,577.45 314.53,582.04 317.88,587.02 323.6,597.56" fill="none" stroke="#000000" stroke-width="1"/><polyline id="SvgjsPolyline4643" points="287.81,340.34 286.11,337.88 285.12,335.06 285.09,332.07 286.13,329.28 288.05,326.99 290.52,325.29 293.28,324.14 296.2,323.44 299.18,323.15 302.18,323.23 305.14,323.71 308,324.6 310.65,325.99 312.91,327.95 314.47,330.49 315.03,333.42 314.54,336.37 313.2,339.04 311.24,341.31 308.86,343.13 306.18,344.46 303.3,345.29 300.32,345.61 297.33,345.4 294.42,344.68 291.69,343.45 289.23,341.74" fill="none" stroke="#000000" stroke-width="1"/><polyline id="SvgjsPolyline4644" points="295.13,0.49 288.93,7 285.34,11.81 280.61,19.46 275,30.07 268.66,43.66 262.86,57.49 257.51,71.51 252.6,85.68 248.11,99.99 244.08,114.44 240.51,129.01 238.03,140.75 235.45,155.52 233.9,167.42 232.97,179.38 232.85,188.38 233.42,197.36 234.33,203.29 235.75,209.12 237.74,214.77 240.35,220.17 243.53,225.25 247.25,229.96 251.44,234.25 256.02,238.13 260.93,241.57 268.81,245.9 274.35,248.22 280.05,250.07 285.89,251.46 294.8,252.63 300.8,252.81 306.79,252.5 312.74,251.71 318.6,250.44 327.15,247.64 332.63,245.2 340.41,240.69 345.24,237.14 349.72,233.15 353.78,228.74 357.37,223.94 360.41,218.76 362.85,213.29 364.69,207.58 365.96,201.72 366.74,195.77 367.18,186.78 366.76,174.79 365.57,162.85 363.83,150.98 361.06,136.24 357.74,121.61 353.93,107.1 349.67,92.72 344.97,78.48 338.75,61.59 333.09,47.7 326.92,34.03 321.52,23.32 317.05,15.51 311.95,8.09 307.92,3.66 305.56,1.81 302.89,0.45" fill="none" stroke="#000000" stroke-width="1"/><polyline id="SvgjsPolyline4645" points="266.39,1.61 260.44,24.86 238.57,99.73 224.58,151.88 221.13,163.38 215.48,180.46 214.11,186.3 213.16,195.25 212.7,207.24 211.58,258.23 211.52,273.11" fill="none" stroke="#000000" stroke-width="1"/><polyline id="SvgjsPolyline4646" points="279.82,2.6 267.57,33.25 256.23,64.23 247.94,89.93 240.7,115.94 234.62,142.24 231.76,156.97 229.3,171.76 227.66,183.65 226.42,195.58 225.94,204.57 226.2,213.56 227.08,219.49 228.76,225.25 231.31,230.67 234.47,235.77 240.16,242.73 244.56,246.8 249.33,250.44 254.38,253.68 259.66,256.53 267.92,260.08 273.62,261.97 285.31,264.61 291.27,265.36 300.25,265.76 312.22,264.97 318.14,264 326.87,261.83 335.34,258.8 340.8,256.3 346.06,253.42 351.09,250.15 355.82,246.47 360.19,242.36 364.08,237.8 367.35,232.78 368.72,230.11 370.84,224.5 372.2,218.66 372.91,212.7 373.15,203.71 372.73,194.72 371.58,182.78 369.99,170.88 367.54,156.09 364.65,141.37 357.69,112.19 349.22,83.41 340.41,57.89 328.3,27.2 317.24,2.57" fill="none" stroke="#000000" stroke-width="1"/><polyline id="SvgjsPolyline4647" points="279.61,0.91 265.5,37.27 255.38,65.51 246.33,94.11 239.28,120.17 232.75,149.45 227.54,178.99 225.02,196.81 222.97,214.69 222.13,226.66 222.21,232.66 223.22,238.56 224.24,241.38 225.63,244.04 229.23,248.83 233.43,253.11 238.01,256.98 242.96,260.38 248.15,263.38 259.07,268.33 267.6,271.19 273.41,272.7 285.22,274.8 291.19,275.39 300.18,275.71 309.17,275.36 315.14,274.75 324.01,273.27 329.85,271.89 338.45,269.24 344.05,267.08 354.79,261.74 359.85,258.53 364.61,254.87 368.91,250.7 370.81,248.38 373.9,243.25 375.01,240.46 375.83,237.58 376.74,231.65 376.93,222.66 376.43,213.67 375.27,201.73 372.96,183.88 370.63,169.06 367.38,151.36 363.63,133.75 360.11,119.17 352.02,90.29 341.59,58.98 330.93,30.94 318.18,0.51" fill="none" stroke="#000000" stroke-width="1"/><polyline id="SvgjsPolyline4648" points="219.03,256.25 219.5,259.21 220.95,261.83 222.98,264.03 225.31,265.92 235.63,272.03 246.66,276.72 258.11,280.31 269.82,282.93 281.69,284.64 296.66,285.57 311.65,285.22 323.58,283.99 338.32,281.22 349.86,277.93 361.04,273.6 366.43,270.96 371.55,267.84 376.06,263.9 377.81,261.47 379.03,258.74 380.01,252.84 379.87,243.84 378.38,225.9 376.05,205.03 373.65,187.2 370.84,169.42 366.98,148.78 363.14,131.19 355.62,102.15 350.45,84.91 345.78,70.66 334.51,39.64 318.6,0.78" fill="none" stroke="#000000" stroke-width="1"/><polyline id="SvgjsPolyline4649" points="390.45,274.54 388.41,272.42 388.62,269.44 388.18,245.45 386.76,188.46 386.26,176.47 385.13,167.55 382.99,158.81 372.28,121.31 353,48.83 346.7,22.58 342.76,1.96" fill="none" stroke="#000000" stroke-width="1"/><polyline id="SvgjsPolyline4650" points="594.69,301.02 592.6,303.05 592.79,306.04 592.44,312.02 593.41,314.86 597.43,322.91 599.75,328.44" fill="none" stroke="#000000" stroke-width="1"/><polyline id="SvgjsPolyline4651" points="590.39,300.34 593.29,299.69 592.16,314.64 592.25,317.64 592.83,320.58 597.79,334.73 599.43,340.5" fill="none" stroke="#000000" stroke-width="1"/><polyline id="SvgjsPolyline4652" points="591.91,320.37 592.23,326.35 592.79,329.3 597.51,346.67 599.8,358.44" fill="none" stroke="#000000" stroke-width="1"/><polyline id="SvgjsPolyline4653" points="591.67,326.2 592.29,335.17 597.43,358.61 599.78,376.45" fill="none" stroke="#000000" stroke-width="1"/><polyline id="SvgjsPolyline4654" points="591.44,332.07 591.59,338.07 592.3,344.02 596.35,364.63 598.27,379.5 599.46,397.46 599.8,415.46 599.57,433.45 598.75,457.44 592.09,598.28" fill="none" stroke="#000000" stroke-width="1"/><polyline id="SvgjsPolyline4655" points="447.6,294 442.56,290.75 440.26,288.83 436.14,284.47 432.64,279.61 428.4,271.67 425.15,263.28 422.02,251.71 420.02,239.88 419.04,227.92 419.17,212.93 420.64,198 423.04,183.2 429.26,150.79 432.31,133.05 434.74,115.22 436.43,97.3 437.48,76.33 437.57,52.33 436.72,28.34 435,1.4" fill="none" stroke="#000000" stroke-width="1"/><polyline id="SvgjsPolyline4656" points="386.14,170.64 384.92,146.67 383.5,131.74 380.92,113.93 372.85,66.61 369.85,45.83 367.4,21.96 366.43,0.98" fill="none" stroke="#000000" stroke-width="1"/><polyline id="SvgjsPolyline4657" points="237.68,1.17 236.1,22.11 233,45.91 228.39,72.51 218.6,122.56 216.73,134.41 215.37,146.33 214.17,164.29 213.06,194.27 211.46,272.22" fill="none" stroke="#000000" stroke-width="1"/><polyline id="SvgjsPolyline4658" points="292.32,599.73 295.2,598.89 301.18,598.73 304.1,599.39" fill="none" stroke="#000000" stroke-width="1"/><polyline id="SvgjsPolyline4659" points="299.51,13.17 296.57,13.73 293.84,14.98 291.38,16.68 287.08,20.86 281.66,28.03 275.49,38.32 270.05,49.02 265.11,59.95 259.49,73.86 254.42,87.97 249.88,102.27 245.88,116.72 243.09,128.39 240.17,143.11 238.38,154.97 237.21,166.91 236.87,175.91 237.13,184.9 237.74,190.87 238.77,196.78 240.29,202.58 242.34,208.21 244.95,213.61 248.11,218.71 251.79,223.45 255.94,227.78 260.5,231.68 265.41,235.12 273.33,239.37 281.77,242.48 287.6,243.89 293.54,244.76 299.53,245.08 308.5,244.52 314.41,243.47 320.19,241.87 325.8,239.75 331.19,237.12 338.75,232.25 343.37,228.43 347.58,224.16 351.34,219.48 354.59,214.44 357.29,209.09 359.43,203.48 361.02,197.7 362.13,191.81 362.8,185.85 363.14,176.85 362.85,167.86 361.73,155.91 359.99,144.04 357.12,129.32 353.61,114.74 350.39,103.18 345.88,88.87 340.84,74.75 335.26,60.82 329.06,47.17 323.51,36.53 318.87,28.82 313.54,21.58 309.35,17.29 306.96,15.48 304.32,14.06 301.44,13.26" fill="none" stroke="#000000" stroke-width="1"/><polyline id="SvgjsPolyline4660" points="254.04,1.81 249.9,25.44 243.91,51.77 229.73,106.97 216.45,156.21 214.84,165.07 214.18,171.03 213.14,192" fill="none" stroke="#000000" stroke-width="1"/><polyline id="SvgjsPolyline4661" points="299.89,25.34 296.92,25.73 294.11,26.77 291.52,28.28 286.97,32.17 281.23,39.09 276.32,46.63 271.94,54.49 266.69,65.28 261.97,76.32 257.71,87.53 252.97,101.76 249.64,113.29 246.74,124.93 244.32,136.69 242.45,148.54 241.47,157.48 240.91,169.47 241.21,178.46 241.83,184.43 242.86,190.34 244.36,196.14 246.37,201.8 248.91,207.23 252,212.37 255.6,217.16 259.7,221.55 264.22,225.48 269.13,228.92 274.37,231.84 279.88,234.21 288.53,236.66 294.47,237.54 300.46,237.8 306.44,237.45 312.36,236.47 318.15,234.89 323.74,232.73 329.08,230 334.11,226.73 338.78,222.97 343.03,218.73 346.81,214.08 350.08,209.05 352.81,203.71 355,198.13 356.67,192.37 357.86,186.49 358.62,180.54 359.08,171.55 358.88,162.56 357.82,150.6 356.05,138.74 353.71,126.97 350.9,115.3 347.64,103.75 342.99,89.5 338.8,78.25 334.16,67.18 329.02,56.34 324.74,48.43 319.97,40.8 314.46,33.69 310.15,29.53 307.71,27.78 305.05,26.4 302.18,25.54" fill="none" stroke="#000000" stroke-width="1"/><polyline id="SvgjsPolyline4662" points="300,37.34 297.02,37.67 294.18,38.6 291.52,40 286.81,43.69 282.73,48.09 279.12,52.87 274.3,60.48 270.03,68.39 264.96,79.27 260.49,90.41 257.49,98.89 253.92,110.35 250.87,121.95 248.38,133.69 246.93,142.57 245.64,154.5 245.27,163.49 245.54,172.48 246.15,178.45 247.17,184.36 248.64,190.18 250.62,195.84 253.12,201.29 256.17,206.45 259.75,211.26 263.84,215.65 268.39,219.56 273.35,222.93 278.66,225.71 287.14,228.71 293.02,229.87 299,230.34 307.97,229.72 313.83,228.45 319.5,226.51 324.91,223.93 330,220.75 334.69,217.01 338.94,212.78 342.69,208.1 345.92,203.05 348.61,197.69 350.75,192.09 352.39,186.32 353.55,180.43 354.3,174.48 354.73,165.49 354.5,156.5 353.71,147.53 352.47,138.62 350.24,126.83 348.17,118.07 344.95,106.51 341.22,95.11 336.97,83.89 332.16,72.89 328.13,64.85 323.64,57.05 318.52,49.65 314.61,45.1 310.13,41.12 307.62,39.49 304.9,38.23 302,37.49" fill="none" stroke="#000000" stroke-width="1"/><polyline id="SvgjsPolyline4663" points="300,49.34 297.02,49.65 294.16,50.53 291.47,51.86 288.98,53.53 284.53,57.55 280.65,62.11 275.57,69.54 268.5,82.76 264.89,91.01 261.66,99.41 257.92,110.81 255.53,119.48 253.51,128.25 251.46,140.07 250.46,149.02 250.01,158 250.24,167 250.84,172.97 251.84,178.88 253.31,184.7 255.28,190.36 257.79,195.81 262.6,203.4 266.5,207.96 270.92,212.02 278.39,217.01 283.84,219.51 289.57,221.27 298.47,222.48 304.46,222.28 310.38,221.29 318.88,218.37 326.65,213.87 331.31,210.09 335.48,205.78 340.72,198.47 343.51,193.17 345.76,187.61 347.47,181.86 348.71,175.99 349.76,167.05 349.99,161.06 349.76,152.06 348.94,143.1 347.62,134.2 345.87,125.37 343.73,116.63 340.3,105.13 336.25,93.84 332.77,85.54 328.87,77.43 324.46,69.59 319.39,62.16 315.5,57.59 311.06,53.57 308.58,51.89 305.9,50.55 303.03,49.66 300.06,49.34" fill="none" stroke="#000000" stroke-width="1"/><polyline id="SvgjsPolyline4664" points="300,61.34 297.02,61.64 294.15,62.5 291.45,63.81 288.95,65.46 284.48,69.45 280.6,74.02 277.16,78.94 274.08,84.08 270,92.1 264.35,105.99 261.59,114.56 259.27,123.25 257.41,132.06 256.06,140.95 255.29,149.92 255.14,155.92 255.89,167.88 256.88,173.8 258.35,179.62 261.56,188.01 266.08,195.79 269.83,200.46 274.16,204.61 279.01,208.13 281.62,209.63 287.11,212.02 289.98,212.9 295.87,214 298.86,214.2 304.85,213.91 307.81,213.42 310.72,212.71 316.34,210.63 319.02,209.28 324.06,206.03 328.59,202.1 332.57,197.61 337.42,190.05 339.92,184.6 341.85,178.92 343.79,170.14 344.51,164.18 344.83,158.19 344.81,152.19 344.19,143.21 342.98,134.3 341.25,125.47 339.04,116.74 336.39,108.14 330.95,94.17 327.01,86.08 324.05,80.87 320.75,75.85 317.05,71.13 312.82,66.88 310.46,65.03 307.91,63.45 305.17,62.24 302.27,61.51" fill="none" stroke="#000000" stroke-width="1"/><polyline id="SvgjsPolyline4665" points="300,73.34 297.02,73.64 294.15,74.51 291.46,75.83 286.68,79.43 284.55,81.55 280.75,86.19 277.43,91.18 274.5,96.41 269.58,107.35 267.53,112.99 264.93,121.61 262.91,130.38 261.9,136.29 261.17,142.25 260.68,151.23 260.8,157.23 261.32,163.2 262.99,172.04 264.77,177.77 267.15,183.27 271.91,190.89 273.83,193.2 278.14,197.36 283.05,200.8 285.7,202.2 288.47,203.37 294.24,204.96 300.21,205.47 306.18,204.88 309.09,204.18 314.68,202.02 317.32,200.58 322.18,197.09 324.4,195.06 328.35,190.55 333.04,182.89 336.31,174.52 338.31,165.75 339.03,159.79 339.32,153.8 338.78,141.82 338.04,135.87 336.38,127.02 332.33,112.59 327.93,101.43 322.35,90.82 319,85.84 315.15,81.24 310.68,77.25 308.17,75.62 305.45,74.35 302.56,73.56" fill="none" stroke="#000000" stroke-width="1"/><polyline id="SvgjsPolyline4666" points="300,85.34 297.02,85.66 294.17,86.57 291.51,87.95 286.84,91.69 284.79,93.89 281.17,98.67 276.7,106.47 272.12,117.55 268.9,129.11 267.02,140.95 266.59,149.94 267.13,158.92 268.83,167.75 271.9,176.19 274.82,181.43 276.56,183.88 280.59,188.3 282.89,190.24 287.97,193.4 293.6,195.45 299.54,196.23 305.5,195.66 311.19,193.79 316.37,190.79 318.72,188.93 322.87,184.6 324.66,182.2 327.69,177.03 330.92,168.64 332.76,159.84 333.41,150.87 332.76,138.89 330.64,127.09 327.19,115.6 323.71,107.3 319.34,99.44 313.82,92.35 309.27,88.46 306.68,86.95 303.88,85.88 300.93,85.37" fill="none" stroke="#000000" stroke-width="1"/><polyline id="SvgjsPolyline4667" points="300,97.34 297.03,97.7 294.21,98.7 291.62,100.21 289.28,102.08 285.27,106.53 280.58,114.2 277.12,122.5 274.69,131.16 273.25,140.04 272.87,149.03 273.71,157.98 275.05,163.83 277.13,169.45 280.02,174.7 283.8,179.35 288.46,183.1 293.9,185.59 296.83,186.26 299.81,186.5 302.8,186.31 305.74,185.69 308.56,184.68 311.22,183.29 315.94,179.61 319.77,175.01 322.72,169.79 324.84,164.18 326.23,158.35 327.12,149.4 326.79,140.41 325.39,131.53 323,122.86 319.58,114.54 314.96,106.83 311,102.33 308.69,100.42 306.13,98.86 303.33,97.79 300.37,97.35" fill="none" stroke="#000000" stroke-width="1"/><polyline id="SvgjsPolyline4668" points="300,109.34 297.04,109.77 294.29,110.95 291.84,112.68 289.7,114.77 286.2,119.63 283.54,125.01 281.59,130.68 279.84,139.5 279.46,145.48 279.77,151.47 280.83,157.37 282.78,163.04 285.76,168.24 289.87,172.57 292.37,174.24 295.1,175.46 298.02,176.14 301.01,176.24 303.97,175.74 306.77,174.69 309.35,173.16 311.65,171.24 315.37,166.55 316.81,163.92 318.92,158.31 320.12,152.44 320.54,146.46 319.89,137.49 318.67,131.62 316.82,125.91 314.28,120.48 310.93,115.51 308.88,113.32 306.54,111.46 303.88,110.08 300.97,109.39" fill="none" stroke="#000000" stroke-width="1"/><polyline id="SvgjsPolyline4669" points="299.59,121.84 296.7,122.59 294.21,124.23 292.17,126.42 290.52,128.93 288.18,134.44 287.43,137.34 286.67,143.29 286.95,149.28 287.52,152.22 289.63,157.82 291.27,160.33 293.34,162.5 295.84,164.13 298.7,165 301.69,164.94 304.51,163.95 306.96,162.24 308.97,160.02 310.55,157.47 311.74,154.72 312.58,151.84 313.34,145.9 313.31,142.9 312.49,136.96 310.64,131.26 309.29,128.59 307.59,126.12 305.49,123.98 302.94,122.43 300.02,121.83" fill="none" stroke="#000000" stroke-width="1"/><polyline id="SvgjsPolyline4670" points="299.65,137.98 297.37,139.78 296.42,142.6 296.46,145.59 297.55,148.36 300.01,149.82 302.47,148.32 303.55,145.54 303.57,142.56 302.6,139.74 300.3,137.99" fill="none" stroke="#000000" stroke-width="1"/></g></svg>